<svg xmlns="http://www.w3.org/2000/svg" viewBox="0 0 23.952 23.952"><path d="M18.174 1.157h-2.116l.709.576c.282.234.547.524.802.871.252.346.468.749.646 1.205.176.457.266.979.266 1.566 0 .562-.083 1.064-.252 1.5-.165.438-.381.832-.643 1.183s-.568.665-.912.942l-1.06.811c-.218.216-.431.439-.645.674-.21.231-.317.527-.317.884 0 .351.125.633.372.84.251.21.479.376.682.504l1.223.885c.337.29.653.582.957.878.302.295.574.614.815.957.236.345.427.723.561 1.136.135.413.199.888.199 1.426 0 .75-.182 1.481-.551 2.188-.368.709-.912 1.346-1.638 1.909-.724.564-1.621 1.015-2.691 1.353-1.073.338-2.306.507-3.707.507-1.232 0-2.302-.125-3.207-.378-.908-.252-1.666-.587-2.271-1.006-.605-.418-1.057-.895-1.353-1.432a3.458 3.458 0 0 1-.44-1.691c0-.569.182-1.212.551-1.933.368-.719 1.042-1.353 2.023-1.899a8.76 8.76 0 0 1 1.67-.709 14.485 14.485 0 0 1 1.758-.427 19.056 19.056 0 0 1 1.655-.217c.52-.042.971-.075 1.343-.097a9.746 9.746 0 0 1-.648-.909c-.195-.316-.294-.726-.294-1.231 0-.268.033-.49.099-.669.065-.181.137-.362.221-.543a9.256 9.256 0 0 1-1.07.065c-.906 0-1.704-.141-2.398-.429a5.668 5.668 0 0 1-1.77-1.117 4.51 4.51 0 0 1-1.088-1.587 4.718 4.718 0 0 1-.365-1.812c0-.728.179-1.463.525-2.209.352-.748.882-1.414 1.594-2.004C8.387.968 9.402.494 10.46.297A16.153 16.153 0 0 1 13.415 0h6.935l-2.176 1.157zm-.82 18.038a2.81 2.81 0 0 0-.196-1.069 3.309 3.309 0 0 0-.592-.934c-.265-.301-.639-.619-1.121-.955l-1.646-1.149a1.127 1.127 0 0 0-.354-.067h-.415c-.086 0-.248.007-.489.016-.241.011-.53.035-.868.071-.337.038-.697.089-1.084.152a8.724 8.724 0 0 0-1.104.256c-.197.064-.452.163-.771.296-.323.131-.64.324-.956.573-.317.249-.59.568-.817.95-.233.383-.346.845-.346 1.389 0 .562.134 1.072.405 1.531.271.457.668.86 1.185 1.213.512.35 1.135.616 1.865.795.726.181 1.538.271 2.433.271 1.62 0 2.837-.313 3.65-.941s1.221-1.427 1.221-2.398zM14.668 9.079c.381-.373.615-.773.697-1.2.083-.425.124-.782.124-1.067a7.56 7.56 0 0 0-.255-1.846 6.993 6.993 0 0 0-.774-1.859 5.195 5.195 0 0 0-1.289-1.453 2.871 2.871 0 0 0-1.797-.592c-.438 0-.872.099-1.298.294a3.306 3.306 0 0 0-1.055.743 2.67 2.67 0 0 0-.586 1.086c-.1.396-.151.801-.151 1.215 0 .521.083 1.105.244 1.748a6.45 6.45 0 0 0 .768 1.813c.35.563.785 1.039 1.3 1.42.52.385 1.135.576 1.854.576.423 0 .834-.078 1.232-.24a2.85 2.85 0 0 0 .986-.638z" fill="#030104"/></svg>